<svg width="24" height="24" viewBox="0 0 24 24" fill="none" xmlns="http://www.w3.org/2000/svg">
<path fill-rule="evenodd" clip-rule="evenodd" d="M19.6138 18.8252C19.8345 19.049 19.8345 19.3846 19.6138 19.6084C19.3931 19.8322 19.0621 19.8322 18.8414 19.6084L12.1103 12.8951L5.26896 19.8322C5.04828 20.0559 4.71724 20.0559 4.49655 19.8322C4.27586 19.6084 4.27586 19.2727 4.49655 19.049L11.3379 12.1119L4.16552 4.95105C3.94483 4.72727 3.94483 4.39161 4.16552 4.16783C4.38621 3.94406 4.71724 3.94406 4.93793 4.16783L12.1103 11.3287L19.0621 4.27972C19.2828 4.05594 19.6138 4.05594 19.8345 4.27972C20.0552 4.5035 20.0552 4.83916 19.8345 5.06294L12.7724 12.1119L19.6138 18.8252Z" />
</svg>
