<svg width="28" height="28" viewBox="0 0 28 28" fill="none" xmlns="http://www.w3.org/2000/svg">
<rect width="28" height="28" rx="4" />
<path d="M20.2 7.5C19.3 7.5 18.7 8 18.5 8.7H6.6C6.2 8.7 6 8.9 6 9.3C6 9.7 6.2 9.9 6.6 9.9H18.4C18.6 10.6 19.4 11.1 20.1 11.1C21.1 11.1 21.9 10.3 21.9 9.3C22 8.3 21.1 7.5 20.2 7.5ZM20.2 9.9C19.8 9.9 19.6 9.7 19.6 9.3C19.6 8.9 19.8 8.7 20.2 8.7C20.6 8.7 20.8 8.9 20.8 9.3C20.8 9.7 20.5 9.9 20.2 9.9Z" />
<path d="M20.2 13.4H13.3C13 12.7 12.4 12.2 11.5 12.2C10.6 12.2 10 12.7 9.8 13.4H6.6C6.2 13.4 6 13.6 6 14C6 14.4 6.2 14.6 6.6 14.6H9.8C10 15.3 10.8 15.8 11.5 15.8C12.2 15.8 13 15.3 13.3 14.6H20.2C20.6 14.6 20.8 14.4 20.8 14C20.8 13.6 20.5 13.4 20.2 13.4ZM11.5 14.6C11.2 14.6 10.9 14.4 10.9 14C10.9 13.6 11.1 13.4 11.5 13.4C11.9 13.4 12.1 13.6 12.1 14C12.1 14.4 11.9 14.6 11.5 14.6Z" />
<path d="M20.2 18.1H18.2C18 17.4 17.3 16.9 16.5 16.9C15.6 16.9 15 17.4 14.8 18.1H6.6C6.2 18.1 6 18.3 6 18.7C6 19.1 6.2 19.3 6.6 19.3H14.7C14.9 20 15.7 20.5 16.4 20.5C17.1 20.5 17.9 20 18.1 19.3H20.1C20.5 19.3 20.7 19.1 20.7 18.7C20.8 18.4 20.5 18.1 20.2 18.1ZM16.5 19.3C16.1 19.3 15.9 19.1 15.9 18.7C15.9 18.3 16.1 18.1 16.5 18.1C16.9 18.1 17.1 18.3 17.1 18.7C17.1 19.1 16.8 19.3 16.5 19.3Z" />
</svg>
