<svg width="60" height="60" viewBox="0 0 60 60" fill="none" xmlns="http://www.w3.org/2000/svg">
<g opacity="0.2">
<path d="M30 0C21.3771 0 14.3284 6.84738 14.3284 15.2239C14.3284 23.6004 21.3771 30.4478 30 30.4478C38.6229 30.4478 45.6716 23.6004 45.6716 15.2239C45.6716 6.84738 38.6229 0 30 0Z" fill="#9C9C9C"/>
<path d="M59.8718 43.5865C59.4157 42.5649 58.8078 41.6114 58.1239 40.726C54.6279 36.0948 49.2322 33.03 43.1524 32.2808C42.3925 32.2128 41.5565 32.3489 40.9484 32.7576C37.7565 34.8689 33.9567 35.9585 30.0047 35.9585C26.0527 35.9585 22.2529 34.8689 19.061 32.7576C18.4529 32.3489 17.617 32.1446 16.857 32.2808C10.7772 33.03 5.30542 36.0948 1.88555 40.726C1.20158 41.6114 0.593535 42.633 0.137649 43.5865C-0.0902934 43.9952 -0.0143611 44.4719 0.213582 44.8806C0.821623 45.834 1.58153 46.7876 2.2655 47.6048C3.32943 48.8989 4.46944 50.0566 5.76145 51.1463C6.82538 52.0997 8.04132 52.9851 9.2574 53.8705C15.2612 57.8888 22.481 60 29.9288 60C37.3766 60 44.5964 57.8887 50.6001 53.8705C51.8161 53.0533 53.032 52.0997 54.0961 51.1463C55.312 50.0566 56.528 48.8988 57.592 47.6048C58.352 46.7194 59.0361 45.834 59.644 44.8806C60.0238 44.4719 60.0997 43.995 59.8718 43.5865Z" fill="#9C9C9C"/>
</g>
</svg>
